<svg enable-background="new 0 0 647 691" viewBox="0 0 647 691" xmlns="http://www.w3.org/2000/svg"><path d="m0 0h647v691h-647z" fill="#ed9122"/><g fill="#fff"><path d="m257 358c-2 0-3.8-.3-5.4-.9s-3.2-1.6-4.7-2.9l1.7-2c1.3 1.1 2.6 2 3.9 2.6s2.8.8 4.5.8 3-.4 4-1.2 1.5-1.8 1.5-2.9v-.1c0-.6-.1-1.1-.3-1.5s-.5-.9-1-1.2c-.5-.4-1.1-.7-2-1-.8-.3-1.9-.6-3.2-.9-1.4-.3-2.6-.6-3.7-1-1-.4-1.9-.9-2.6-1.4-.7-.6-1.2-1.2-1.5-1.9s-.5-1.6-.5-2.6v-.1c0-.9.2-1.8.6-2.6s1-1.5 1.7-2.1 1.6-1 2.6-1.4c1-.3 2.1-.5 3.2-.5 1.8 0 3.4.2 4.7.7 1.4.5 2.7 1.2 3.9 2.2l-1.6 2.1c-1.2-.9-2.3-1.6-3.5-2s-2.4-.6-3.7-.6c-1.6 0-2.9.4-3.8 1.1s-1.4 1.7-1.4 2.8v.1c0 .6.1 1.1.3 1.5s.5.9 1 1.2c.5.4 1.2.7 2 1 .9.3 2 .6 3.4.9 2.8.6 4.8 1.4 6.1 2.5s2 2.5 2 4.3v.1c0 1-.2 2-.6 2.8s-1 1.6-1.7 2.2-1.6 1.1-2.7 1.4c-.9.4-2 .5-3.2.5"/><path d="m271.3 333.6h2.8v24.1h-2.8z"/><path d="m281.3 333.6h2.8l9 13.1 9-13.1h2.9v24.1h-2.8v-19.5l-9 12.9h-.2l-9-12.9v19.5h-2.7z"/><path d="m311.9 333.6h9.2c1.4 0 2.6.2 3.8.5 1.1.4 2.1.9 2.9 1.5.8.7 1.4 1.5 1.9 2.4.4.9.7 2 .7 3.2v.1c0 1.3-.3 2.5-.8 3.4-.5 1-1.2 1.8-2.1 2.5s-1.9 1.2-3.1 1.5-2.4.5-3.7.5h-6v8.5h-2.8zm8.9 13.1c1 0 1.9-.1 2.8-.4.8-.3 1.6-.6 2.2-1.1s1.1-1 1.4-1.7c.3-.6.5-1.4.5-2.2v-.1c0-1.7-.6-3-1.8-3.9s-2.8-1.3-4.8-1.3h-6.3v10.7z"/><path d="m335.5 333.6h2.8v21.6h13.9v2.5h-16.7z"/><path d="m365 348.1-10.2-14.5h3.4l8.3 12 8.3-12h3.3l-10.3 14.5v9.6h-2.8z"/><path d="m382.9 333.6h5.4v24.1h-5.4z"/><path d="m394.5 333.6h11.3c3.1 0 5.5.8 7.2 2.4 1.4 1.4 2.1 3.2 2.1 5.5v.1c0 2-.5 3.5-1.5 4.8-1 1.2-2.3 2.1-3.8 2.7l6 8.6h-6.3l-5.3-7.7h-.1-4.1v7.7h-5.4v-24.1zm11 11.7c1.3 0 2.4-.3 3.1-.9s1.1-1.4 1.1-2.5v-.1c0-1.1-.4-2-1.1-2.6-.8-.6-1.8-.9-3.1-.9h-5.5v6.9h5.5z"/><path d="m428.5 333.4h5l10.6 24.3h-5.7l-2.3-5.4h-10.4l-2.3 5.4h-5.5zm5.7 14.2-3.3-7.8-3.3 7.8z"/><path d="m442.8 340.9c-.5 0-1.1-.1-1.5-.3-.5-.2-.9-.5-1.2-.8-.4-.3-.6-.7-.8-1.2s-.3-1-.3-1.5c0-.5.1-1 .3-1.5s.5-.9.8-1.2c.4-.3.8-.6 1.3-.8s1-.3 1.5-.3 1.1.1 1.5.3c.5.2.9.5 1.2.8.4.3.6.7.8 1.2s.3 1 .3 1.5c0 .5-.1 1-.3 1.5s-.5.9-.8 1.2c-.4.3-.8.6-1.2.8-.5.2-1 .3-1.6.3m0-.4c.5 0 1-.1 1.4-.3s.8-.4 1.1-.7.6-.7.7-1.1c.2-.4.3-.9.3-1.3 0-.5-.1-.9-.3-1.3s-.4-.8-.7-1.1-.7-.5-1.1-.7-.9-.3-1.4-.3-1 .1-1.4.3-.8.4-1.1.7-.6.7-.7 1.1c-.2.4-.3.9-.3 1.3 0 .5.1.9.3 1.3s.4.8.7 1.1.7.5 1.1.7c.5.2.9.3 1.4.3m-1.6-5.6h1.9c.6 0 1 .1 1.3.4.2.2.3.5.3.9 0 .3-.1.6-.3.8s-.4.4-.6.5l1 1.5h-1.1l-.9-1.3h-.7v1.3h-.9zm1.9 2c.2 0 .4-.1.5-.2s.2-.2.2-.4c0-.2-.1-.3-.2-.4s-.3-.1-.5-.1h-.9v1.2h.9z"/><path d="m219.3 339.2v13.1 10.2c0 1.3.8 2.3 1.8 2.3s1.8-1 1.8-2.3v-15.8c.3.1.7.2 1 .2v13.4c0 1.3.8 2.3 1.8 2.3s1.8-1 1.8-2.3v-13.4c.4-.1.7-.1 1.1-.2v9.9c0 1.3.8 2.3 1.8 2.3s1.8-1 1.8-2.3v-11.6c.4-.3.8-.6 1.1-.9v6.9c0 1 .8 1.7 1.8 1.7s1.8-.8 1.8-1.7v-14.9c0-6-5-10.9-11.1-10.9-2.4 0-4.6.7-6.4 2v12z"/><path d="m217.5 352.1v-13.1-10.2c0-1.3-.8-2.3-1.8-2.3s-1.8 1-1.8 2.3v15.8c-.3-.1-.7-.2-1-.2v-13.4c0-1.3-.8-2.3-1.8-2.3s-1.8 1-1.8 2.3v13.4c-.4.1-.7.1-1.1.2v-9.9c0-1.3-.8-2.3-1.8-2.3s-1.8 1-1.8 2.3v11.5c-.4.3-.8.6-1.1.9v-6.9c0-1-.8-1.7-1.8-1.7s-1.8.8-1.8 1.7v14.9c0 6 5 10.9 11.1 10.9 2.4 0 4.6-.7 6.4-2v-11.9z"/></g></svg>