<svg enable-background="new 0 0 70.5 19.3" viewBox="0 0 70.5 19.3" xmlns="http://www.w3.org/2000/svg"><g fill="#fff"><path d="m0 0h8.9c1.2 0 2.3.2 3.2.5s1.7.7 2.3 1.3c.7.6 1.2 1.3 1.6 2.2s.6 1.8.6 2.9c0 .9-.2 1.8-.5 2.6s-.8 1.5-1.4 2.1-1.3 1-2.1 1.4-1.7.5-2.7.5h-4.3v5.9h-5.6zm5.6 9h3.1c.7 0 1.2-.2 1.6-.6s.6-1 .6-1.6-.2-1.2-.6-1.6-1-.6-1.7-.6h-3z"/><path d="m18.7 0h5.6v14.5h8.3v4.8h-13.9z"/><path d="m41 0h5.8l7.2 19.3h-6l-1-2.8h-6.5l-.9 2.8h-5.6zm.7 12.6h4l-1.2-3.8c-.2-.5-.3-1-.5-1.6-.1-.3-.2-.6-.2-.9h-.1c-.1.3-.2.6-.2.9-.1.6-.3 1.1-.5 1.6z"/><path d="m58.2 12.5-6.6-12.5h6.1l2.1 4.3c.2.4.3.7.5 1.1s.3.7.4 1 .3.7.4 1h.1c.1-.3.3-.7.4-1s.3-.6.4-1c.2-.4.3-.7.5-1.1l2-4.3h6l-6.6 12.5v6.8h-5.6v-6.8z"/></g></svg>