<svg viewBox="0 0 101.23 33.16" xmlns="http://www.w3.org/2000/svg"><g fill="#fff" transform="translate(-69.56 -50.7)"><path d="m94.2 83.39h-6.72l-7.23-11.39h-4.88v11.39h-5.8v-32.69h12c5.25 0 11.05 3.32 11.05 10.55 0 4.33-2.35 7.55-6.49 9.72zm-7.55-22c0-2.85-2.21-5-5.85-5h-5.43v10.33h5.34c3.68 0 5.94-2.39 5.94-5.34z"/><path d="m93.7 72.06c0-6.68 4.74-11.7 10.64-11.7a7.45 7.45 0 0 1 6.68 3.5v-3h5.76v22.53h-5.78v-3.13a7.28 7.28 0 0 1 -6.68 3.59c-5.93 0-10.62-5.02-10.62-11.79zm17.68 0c0-4-2.53-6.59-6-6.59-3 0-5.85 2.39-5.85 6.63s2.81 6.77 5.85 6.77c3.42-.04 6-2.75 6-6.87z"/><path d="m126.21 71.93-8.06-11.1h6.45l4.79 7 4.65-7h7l-8.24 11.33 8.2 11.24h-6.54l-5.12-7.4-5 7.37h-6.34z"/><path d="m138.83 72.11a11.88 11.88 0 1 1 11.88 11.74 11.88 11.88 0 0 1 -11.88-11.74zm18 0a6.08 6.08 0 1 0 -6.08 6.36 6.06 6.06 0 0 0 6.04-6.36z"/><path d="m163.47 80.35a3.66 3.66 0 0 1 7.32 0 3.66 3.66 0 0 1 -7.32 0z"/></g></svg>